# xmcd CD database file
#
# Track frame offsets:
#	150
#	15745
#	45418
#	70603
#	110651
#	122357
#	176564
#	192567
#	245133
#
# Disc length: 3534 seconds
#
# Revision: 0
# Processed by: cddbd v1.5.2PL0 Copyright (c) Steve Scherf et al.
# Submitted via: CDex 2.00
#
DISCID=770dcc09
DTITLE=Gwilym Simcock - Near and Now
DYEAR=2018
DGENRE=Jazz
TTITLE0=Beautiful Is Our Moment (for Billy Childs) Part I
TTITLE1=Beautiful Is Our Moment (for Billy Childs) Part II
TTITLE2=Beautiful Is Our Moment (for Billy Childs) Part III
TTITLE3=Before The Elegant Hour (for Brad Mehldau)
TTITLE4=You're My You (for Les Chisnall)
TTITLE5=Inveraray Air (for Russell Ferrante)
TTITLE6=Many Worlds Away (for Egberto Gismonti) Part I
TTITLE7=Many Worlds Away (for Egberto Gismonti) Part II
TTITLE8=Many Worlds Away (for Egberto Gismonti) Part III
EXTD=YEAR: 2018
EXTT0=
EXTT1=
EXTT2=
EXTT3=
EXTT4=
EXTT5=
EXTT6=
EXTT7=
EXTT8=
PLAYORDER=
